<?xml version="1.0" encoding="UTF-8"?>
<svg version="1.1" xmlns="http://www.w3.org/2000/svg" width="277" height="268">
<path d="M0 0 C91.41 0 182.82 0 277 0 C277 88.44 277 176.88 277 268 C185.59 268 94.18 268 0 268 C0 179.56 0 91.12 0 0 Z " fill="#07080A" transform="translate(0,0)"/>
<path d="M0 0 C0.98871094 0.00515625 1.97742188 0.0103125 2.99609375 0.015625 C8.17433721 0.07093334 13.14683724 0.36621204 18.25 1.25 C18.25 0.92 18.25 0.59 18.25 0.25 C43.65023311 -0.06618547 70.88732305 2.31966822 91.25 19.25 C91.86875 19.72308594 92.4875 20.19617188 93.125 20.68359375 C101.6938601 28.0474579 107.50396179 41.79306215 108.48120117 52.87084961 C109.43173624 72.22162032 106.98917184 88.71813571 94.59765625 104.33203125 C82.77770107 117.09758284 62.92812488 123.44571352 46.25 126.25 C46.69730469 126.85585937 47.14460938 127.46171875 47.60546875 128.0859375 C56.70013988 140.69049238 61.48306464 151.46989428 60.25 167.25 C57.58843542 181.45032361 49.53251573 193.73680153 37.625 201.9375 C26.11968263 208.68515134 14.26457928 210.45379777 1.23242188 210.49023438 C-0.84807325 210.49987522 -2.92755138 210.5309061 -5.0078125 210.5625 C-21.52196527 210.69531829 -36.55072495 205.76775131 -48.75 194.25 C-53.80383716 188.74573172 -57.80055749 183.10468489 -60.75 176.25 C-61.26949219 175.05375 -61.78898437 173.8575 -62.32421875 172.625 C-64.08084303 167.87668498 -64.28776764 163.40192058 -64.25 158.375 C-64.24427979 157.49239502 -64.23855957 156.60979004 -64.23266602 155.70043945 C-63.98546255 146.69374352 -61.42531469 140.95009128 -55.375 134.3125 C-49.94020506 129.35690203 -44.51237503 127.64133611 -37.23828125 127.90625 C-30.36959935 128.85514169 -26.11596375 132.37639946 -21.87890625 137.6640625 C-18.57048704 142.31187634 -19.2828071 147.76735392 -19.75 153.25 C-20.70736208 157.27350821 -22.18195668 160.01924746 -25.45703125 162.58984375 C-31.09139016 165.61709969 -37.0755218 165.78222407 -43.34082031 165.92358398 C-47.49896141 165.88471104 -47.49896141 165.88471104 -50.75 168.25 C-51.78421922 175.22825814 -51.19981942 181.25702208 -47.359375 187.22265625 C-38.65938328 198.18211184 -23.57788224 205.627845 -9.75 207.25 C4.95395868 208.22533796 18.12083545 206.39081966 30.25 197.25 C36.32065417 191.89959294 38.81006036 185.88837594 39.56640625 177.9140625 C39.96234352 166.13812186 36.77756573 158.13044621 29.25 149.25 C28.31800781 148.13625 28.31800781 148.13625 27.3671875 147 C23.00839955 141.94038732 18.37797978 137.51441374 13.25 133.25 C12.3425 132.47785156 11.435 131.70570313 10.5 130.91015625 C5.56153966 126.73690005 0.58473048 122.70936164 -4.625 118.875 C-11.10412813 114.07942485 -17.17305115 108.86655888 -23.23876953 103.56591797 C-24.49350344 102.47334677 -25.75907584 101.39323749 -27.02734375 100.31640625 C-28.96855151 98.66102049 -30.86629112 96.970553 -32.75 95.25 C-34.04164062 94.074375 -34.04164062 94.074375 -35.359375 92.875 C-48.0455837 80.81959726 -56.48401498 67.37192574 -57.31835938 49.46240234 C-57.59921458 35.70291838 -53.88905366 26.61989413 -44.3125 16.57421875 C-31.65298995 5.09188875 -16.94229398 -0.35904199 0 0 Z " fill="#090B0C" transform="translate(126.75,31.75)"/>
<path d="M0 0 C0.99999023 0.00499512 1.99998047 0.00999023 3.03027344 0.01513672 C11.77463187 0.21931256 18.79457874 1.84975223 26.75 5.5 C27.75289063 5.95761719 28.75578125 6.41523437 29.7890625 6.88671875 C41.05196576 12.54919766 49.70970286 20.83214613 54.625 32.59375 C56.61489356 39.33727818 57.03480712 47.34425763 54.25 53.875 C51.68412025 58.20492208 48.49742624 60.82262736 43.75 62.5 C38.11062561 63.4136835 32.68471482 63.63179927 27.75 60.4375 C23.43899319 56.63243042 21.13459581 53.11859581 20.30078125 47.44140625 C19.94369349 40.57738595 20.57607197 36.38136618 25.1484375 31.19140625 C25.67695313 30.63324219 26.20546875 30.07507813 26.75 29.5 C29.42817847 26.11703772 31.00937165 23.72870565 31.25 19.4375 C30.6787819 14.93915749 30.09304399 13.50873959 26.75 10.5 C16.21948142 3.6777453 2.90746435 3.21165199 -9.25 4.5 C-20.82379491 7.32718654 -29.21834549 14.31434792 -35.83984375 23.97265625 C-39.86586725 31.18827178 -40.10016646 38.40999491 -39.25 46.5 C-32.59632712 68.53448879 -6.45196749 83.97048835 11.5 96.125 C31.87187428 110.07189854 53.77598526 127.76836181 60.75 152.5 C62.20357474 167.25547377 58.74999189 179.75051975 49.75 191.5 C40.61769163 202.20621322 28.66537605 208.20673606 14.75 210.5 C10.4123047 210.71580574 6.07472892 210.72809372 1.73242188 210.74023438 C-0.34807325 210.74987522 -2.42755138 210.7809061 -4.5078125 210.8125 C-21.02196527 210.94531829 -36.05072495 206.01775131 -48.25 194.5 C-53.30383716 188.99573172 -57.30055749 183.35468489 -60.25 176.5 C-60.76949219 175.30375 -61.28898437 174.1075 -61.82421875 172.875 C-63.58084303 168.12668498 -63.78776764 163.65192058 -63.75 158.625 C-63.74427979 157.74239502 -63.73855957 156.85979004 -63.73266602 155.95043945 C-63.48546255 146.94374352 -60.92531469 141.20009128 -54.875 134.5625 C-49.44020506 129.60690203 -44.01237503 127.89133611 -36.73828125 128.15625 C-29.86959935 129.10514169 -25.61596375 132.62639946 -21.37890625 137.9140625 C-18.07048704 142.56187634 -18.7828071 148.01735392 -19.25 153.5 C-20.20736208 157.52350821 -21.68195668 160.26924746 -24.95703125 162.83984375 C-30.59139016 165.86709969 -36.5755218 166.03222407 -42.84082031 166.17358398 C-46.99896141 166.13471104 -46.99896141 166.13471104 -50.25 168.5 C-51.28421922 175.47825814 -50.69981942 181.50702208 -46.859375 187.47265625 C-38.15938328 198.43211184 -23.07788224 205.877845 -9.25 207.5 C5.45395868 208.47533796 18.62083545 206.64081966 30.75 197.5 C36.82065417 192.14959294 39.31006036 186.13837594 40.06640625 178.1640625 C40.46234352 166.38812186 37.27756573 158.38044621 29.75 149.5 C28.81800781 148.38625 28.81800781 148.38625 27.8671875 147.25 C23.50839955 142.19038732 18.87797978 137.76441374 13.75 133.5 C12.8425 132.72785156 11.935 131.95570313 11 131.16015625 C6.06153966 126.98690005 1.08473048 122.95936164 -4.125 119.125 C-10.60412813 114.32942485 -16.67305115 109.11655888 -22.73876953 103.81591797 C-23.99350344 102.72334677 -25.25907584 101.64323749 -26.52734375 100.56640625 C-28.46855151 98.91102049 -30.36629112 97.220553 -32.25 95.5 C-33.54164062 94.324375 -33.54164062 94.324375 -34.859375 93.125 C-47.5455837 81.06959726 -55.98401498 67.62192574 -56.81835938 49.71240234 C-57.09921458 35.95291838 -53.38905366 26.86989413 -43.8125 16.82421875 C-31.42408347 5.58777388 -16.63770366 -0.11054011 0 0 Z " fill="#F8F8F8" transform="translate(126.25,31.5)"/>
<path d="M0 0 C3 0.25 3 0.25 5 2.25 C5.66 1.59 6.32 0.93 7 0.25 C7.59683594 0.74886719 8.19367188 1.24773437 8.80859375 1.76171875 C13.87353358 5.95365261 18.99369145 10.02286629 24.24658203 13.9753418 C31.30656168 19.29117448 38.00379848 24.76049775 44.42578125 30.83203125 C46.64322915 32.91488443 48.91015797 34.87092895 51.25 36.8125 C58.78869543 43.37744727 66.08149014 52.19127075 68 62.25 C68.66376829 72.50011418 68.51142836 81.204585 61.9375 89.4375 C53.26021679 98.54955314 41.24619998 103.19842551 28.78759766 103.72241211 C11.9946404 103.93663701 -3.42455889 98.45583861 -16 87.25 C-22.52137005 80.71236718 -24.32998332 75.0272105 -24.3984375 65.95703125 C-24 63.25 -24 63.25 -22.95703125 61.41796875 C-19.91790711 59.60420005 -16.75534166 59.80617599 -13.3125 59.75 C-4.77411757 59.43346375 -4.77411757 59.43346375 3 56.25 C7.25435624 51.38438568 7.7446414 45.408533 7.5078125 39.15625 C6.67524472 34.39140056 4.59821152 31.41368174 1 28.25 C-3.38648803 25.2647512 -7.69852739 23.78014726 -13 23.25 C-12.34 22.92 -11.68 22.59 -11 22.25 C-11 21.26 -11 20.27 -11 19.25 C-11.7425 19.600625 -12.485 19.95125 -13.25 20.3125 C-16.16209794 21.30526066 -17.21069033 21.4041971 -20 20.25 C-20.66 19.59 -21.32 18.93 -22 18.25 C-21.77256695 15.29337034 -21.38764062 13.69966312 -19.4375 11.4375 C-18.963125 11.045625 -18.48875 10.65375 -18 10.25 C-17.01 10.58 -16.02 10.91 -15 11.25 C-15 11.91 -15 12.57 -15 13.25 C-15.99 13.745 -15.99 13.745 -17 14.25 C-17.33 15.24 -17.66 16.23 -18 17.25 C-17.4225 16.92 -16.845 16.59 -16.25 16.25 C-14 15.25 -14 15.25 -10 15.25 C-10 14.59 -10 13.93 -10 13.25 C-10.99 12.92 -11.98 12.59 -13 12.25 C-13.33 10.27 -13.66 8.29 -14 6.25 C-11.16032769 6.25 -8.76264289 6.65267181 -6 7.25 C-5.87625 6.46625 -5.7525 5.6825 -5.625 4.875 C-4.72222695 1.08335318 -3.90080107 0.32506676 0 0 Z " fill="#090A0C" transform="translate(99,136.75)"/>
<path d="M0 0 C25.40023311 -0.31618547 52.63732305 2.06966822 73 19 C73.61875 19.47308594 74.2375 19.94617188 74.875 20.43359375 C83.4438601 27.7974579 89.25396179 41.54306215 90.23120117 52.62084961 C91.18173624 71.97162032 88.73917184 88.46813571 76.34765625 104.08203125 C66.82748194 114.36381951 48.73168327 123.17549263 34.796875 124.24609375 C32.18379497 124.24944385 29.60594758 124.18467345 27 124 C26.34 122.68 25.68 121.36 25 120 C26.60875 119.690625 26.60875 119.690625 28.25 119.375 C38.08258795 116.86009296 46.18904875 112.39533658 52 104 C52.44730469 103.3915625 52.89460938 102.783125 53.35546875 102.15625 C60.96478123 90.35596233 62.44998486 75.79517709 62.5 62.125 C62.50930542 60.46911865 62.50930542 60.46911865 62.51879883 58.77978516 C62.2984858 44.37668648 58.82085721 29.00072903 48.8125 18.0625 C37.19583308 7.86249977 23.03583399 3.77726677 7.8046875 3.2734375 C4.87034696 2.98735973 2.6687011 2.22193274 0 1 C0 0.67 0 0.34 0 0 Z " fill="#F8F8F8" transform="translate(145,32)"/>
<path d="M0 0 C0.69029297 -0.00386719 1.38058594 -0.00773437 2.09179688 -0.01171875 C6.27289365 -0.0037925 9.88588123 0.42889687 14.0625 1.125 C14.0625 30.825 14.0625 60.525 14.0625 91.125 C10.37035218 89.64814087 8.27370743 88.75138618 5.28515625 86.48046875 C4.60646484 85.96806641 3.92777344 85.45566406 3.22851562 84.92773438 C2.53435547 84.39470703 1.84019531 83.86167969 1.125 83.3125 C0.08956055 82.53036133 0.08956055 82.53036133 -0.96679688 81.73242188 C-2.97011218 80.21142135 -4.96454884 78.68526217 -6.9375 77.125 C-8.4654847 76.05603989 -8.4654847 76.05603989 -10.02433777 74.96548462 C-12.58198621 72.81473109 -12.90203277 72.28705222 -13.6590271 68.82829285 C-13.6390416 66.95298637 -13.6390416 66.95298637 -13.61865234 65.03979492 C-13.6195285 64.34656128 -13.62040466 63.65332764 -13.62130737 62.93908691 C-13.617145 60.66004581 -13.57056795 58.38399186 -13.5234375 56.10546875 C-13.51224028 54.52079374 -13.50370257 52.9360979 -13.49771118 51.35139465 C-13.47485345 47.18993305 -13.41595891 43.02973742 -13.3494873 38.86877441 C-13.28799739 34.61907069 -13.260682 30.36916143 -13.23046875 26.11914062 C-13.16621063 17.78718086 -13.06387069 9.45624811 -12.9375 1.125 C-8.58809841 0.18035481 -4.43767602 -0.02472243 0 0 Z " fill="#F8F8F8" transform="translate(127.9375,36.875)"/>
<path d="M0 0 C3.58160961 1.7908048 6.38254478 3.66165498 9.5625 6.0625 C10.51253906 6.77535156 11.46257812 7.48820313 12.44140625 8.22265625 C12.97131165 8.64938629 13.50121704 9.07611633 14.04718018 9.51577759 C16.0768709 11.10678193 16.0768709 11.10678193 18.71600342 12.68612671 C23.19693681 15.73946452 26.45769747 18.0792467 27.96934509 23.43327332 C28.27213906 27.58414486 28.24116234 31.60152723 28.07421875 35.75390625 C28.05366608 37.26556195 28.03802511 38.77729164 28.02705383 40.28904724 C27.9853284 44.24153978 27.87755278 48.18948533 27.75531006 52.14019775 C27.64216273 56.1820321 27.59241455 60.22461186 27.53710938 64.26757812 C27.41962832 72.18045743 27.23226132 80.08966104 27 88 C25.39991472 88.33096169 23.79920716 88.65891589 22.19824219 88.9855957 C21.30691589 89.16854691 20.4155896 89.35149811 19.49725342 89.53999329 C16.71305441 90.05285683 14.07972481 90.23466208 11.25 90.1875 C9.95835938 90.17783203 9.95835938 90.17783203 8.640625 90.16796875 C5.74008514 89.98346695 2.86685724 89.47780954 0 89 C0 59.63 0 30.26 0 0 Z " fill="#F8F9F9" transform="translate(115,148)"/>
<path d="M0 0 C0.99 0.33 1.98 0.66 3 1 C5.05053054 1.2271484 7.10161107 1.45075191 9.15551758 1.64501953 C23.783508 3.04268329 37.73729786 6.28132517 47.8125 18 C48.534375 18.99 49.25625 19.98 50 21 C48.625 22.51171875 48.625 22.51171875 47 24 C43.9582904 23.71483972 42.60954198 22.73969465 40 21 C40.66 21.66 41.32 22.32 42 23 C42.55045872 28.17431193 42.55045872 28.17431193 40.75 30.875 C39 32 39 32 35 32 C35 33.65 35 35.3 35 37 C33.7701414 34.6348873 32.72522191 32.29931587 31.75 29.8125 C26.27126655 17.18172535 16.61308725 9.20105601 4 4 C1.67008575 3.20391123 -0.60211455 2.57340739 -3 2 C-2.01 1.34 -1.02 0.68 0 0 Z " fill="#101213" transform="translate(147,33)"/>
<path d="M0 0 C1 3 1 3 0.0625 5.1875 C-0.288125 5.785625 -0.63875 6.38375 -1 7 C0.32 6.34 1.64 5.68 3 5 C2.125 9.875 2.125 9.875 1 11 C-1.33297433 11.04092937 -3.66705225 11.04241723 -6 11 C-5.938125 11.9075 -5.87625 12.815 -5.8125 13.75 C-6.01672076 17.28982642 -6.64551835 18.44931155 -9 21 C-10.65 20.67 -12.3 20.34 -14 20 C-14 19.34 -14 18.68 -14 18 C-14.66 18 -15.32 18 -16 18 C-16 17.34 -16 16.68 -16 16 C-16.66 16 -17.32 16 -18 16 C-18 15.34 -18 14.68 -18 14 C-19.32 13.34 -20.64 12.68 -22 12 C-21.67 10.68 -21.34 9.36 -21 8 C-20.319375 8.185625 -19.63875 8.37125 -18.9375 8.5625 C-15.42767809 9.08523943 -12.47811937 8.61378577 -9 8 C-9.12375 6.6078125 -9.12375 6.6078125 -9.25 5.1875 C-9 2 -9 2 -7.3125 0.0625 C-4.43497994 -1.25960381 -2.97788882 -0.90991047 0 0 Z " fill="#131516" transform="translate(104,3)"/>
<path d="M0 0 C6.75081821 1.12513637 6.75081821 1.12513637 9.40234375 3.29296875 C10.26835205 3.98749146 10.26835205 3.98749146 11.15185547 4.69604492 C11.74111816 5.1882251 12.33038086 5.68040527 12.9375 6.1875 C13.54996582 6.68419189 14.16243164 7.18088379 14.79345703 7.69262695 C16.54032081 9.115352 18.27292847 10.55334828 20 12 C20.81339844 12.680625 21.62679687 13.36125 22.46484375 14.0625 C23.98969725 15.35971688 25.49779144 16.6766258 27 18 C26.34 18.66 25.68 19.32 25 20 C24.44054687 19.46632812 23.88109375 18.93265625 23.3046875 18.3828125 C16.1676367 11.75063347 9.10977438 6.79269599 1 1 C1 30.37 1 59.74 1 90 C14.18672426 90.14386486 14.18672426 90.14386486 27 89 C27.495 89.99 27.495 89.99 28 91 C22.2750962 92.63198615 17.19005217 93.31330429 11.25 93.25 C10.13818359 93.26160156 10.13818359 93.26160156 9.00390625 93.2734375 C4.87453988 93.25861033 2.78424006 92.89212003 -1 91 C-0.67 60.97 -0.34 30.94 0 0 Z " fill="#505151" transform="translate(114,147)"/>
<path d="M0 0 C0.66 0.33 1.32 0.66 2 1 C1.67 2.98 1.34 4.96 1 7 C3.89234315 7.82638376 5.88742431 8 9 8 C8.4375 9.9375 8.4375 9.9375 7 12 C3.375 12.75 3.375 12.75 0 13 C-0.1546875 14.670625 -0.1546875 14.670625 -0.3125 16.375 C-0.539375 17.57125 -0.76625 18.7675 -1 20 C-4 22 -4 22 -6.5 21.8125 C-9.26314599 20.91447755 -10.4089781 20.42840184 -12 18 C-12.39704314 14.82365485 -12.49933741 12.85996999 -10.875 10.0625 C-8.07329973 8.47486985 -6.03014356 9.25929824 -3 10 C-3.061875 8.906875 -3.12375 7.81375 -3.1875 6.6875 C-3 3 -3 3 -1.5 1.0625 C-1.005 0.711875 -0.51 0.36125 0 0 Z " fill="#131516" transform="translate(267,102)"/>
<path d="M0 0 C2.475 0.99 2.475 0.99 5 2 C5.66 1.34 6.32 0.68 7 0 C9.375 -0.4375 9.375 -0.4375 12 0 C14.55661701 2.4184215 15.80549007 4.11389923 16.5625 7.5625 C15.75584028 11.05802545 13.94694946 12.10553249 11 14 C10.34 14 9.68 14 9 14 C7.74772516 12.52295788 6.49833478 11.04172601 5.31640625 9.5078125 C3.88235909 7.73237056 3.88235909 7.73237056 1 6 C1 5.34 1 4.68 1 4 C0.34 4 -0.32 4 -1 4 C-0.67 2.68 -0.34 1.36 0 0 Z " fill="#131516" transform="translate(217,145)"/>
<path d="M0 0 C4.01268958 0.54424985 5.98416846 2.52072201 8.8125 5.3125 C9.62332031 6.09238281 10.43414062 6.87226563 11.26953125 7.67578125 C13 10 13 10 12.8671875 12.1796875 C11.64563799 14.74384098 10.5302238 15.70069589 8 17 C4.32706204 16.77962372 2.63033454 16.63033454 0 14 C-0.18733887 11.1274707 -0.17603753 8.66503068 0.5625 5.875 C1.09000994 3.6142431 0.70227228 2.18484708 0 0 Z " fill="#131517" transform="translate(69,24)"/>
<path d="M0 0 C3.3221347 1.4623392 5.69313983 3.30806606 8.3125 5.8125 C9.03050781 6.47894531 9.74851563 7.14539063 10.48828125 7.83203125 C12 10 12 10 11.91796875 12.63671875 C11 15 11 15 8 17 C1.74945534 16.78068264 1.74945534 16.78068264 -0.5 14.4375 C-1.11437452 11.44242423 -0.79242482 8.99676173 -0.2890625 6 C0.09536328 3.67698609 0.09536328 3.67698609 0 0 Z " fill="#141517" transform="translate(204,158)"/>
<path d="M0 0 C0.66 0 1.32 0 2 0 C3.62109375 1.6796875 3.62109375 1.6796875 5.4375 3.875 C7.58400884 6.46193722 9.16776562 8.11184374 12 10 C11.60856977 12.27029534 11.11258722 13.83408198 9.8125 15.75 C7.1220528 17.60548083 5.18649624 17.39831203 2 17 C0.125 15.875 0.125 15.875 -1 14 C-1.1875 11.0625 -1.1875 11.0625 -1 8 C-1 6.68 -1 5.36 -1 4 C-0.7018576 2.65835921 -0.37756808 1.32148827 0 0 Z " fill="#141517" transform="translate(43,183)"/>
<path d="M0 0 C0 0.66 0 1.32 0 2 C0.99 2 1.98 2 3 2 C3 6.95 3 11.9 3 17 C2.67 17 2.34 17 2 17 C1.67 14.69 1.34 12.38 1 10 C0.34 10.66 -0.32 11.32 -1 12 C-4.44165321 11.64700993 -6.06872538 10.95418308 -9 9 C-9.37650785 5.54867807 -9.60658065 3.07836561 -7.875 0 C-5.06863762 -1.49672661 -2.99840718 -0.73294398 0 0 Z " fill="#1C1D1E" transform="translate(60,180)"/>
<path d="M0 0 C0.99 0 1.98 0 3 0 C2.67 2.31 2.34 4.62 2 7 C5.465 6.505 5.465 6.505 9 6 C9.33 6.66 9.66 7.32 10 8 C7.16569547 11.2542015 5.31392226 12.5206753 1 13 C0.87625 13.94875 0.7525 14.8975 0.625 15.875 C0 19 0 19 -2 21 C-2.99 21 -3.98 21 -5 21 C-5 17.04 -5 13.08 -5 9 C-4.01 9 -3.02 9 -2 9 C-2.04125 7.88625 -2.0825 6.7725 -2.125 5.625 C-2 2 -2 2 0 0 Z " fill="#121415" transform="translate(5,95)"/>
<path d="M0 0 C5.85272256 0.45020943 10.08220119 3.03839227 15 6 C14.67 6.99 14.34 7.98 14 9 C12.35 9 10.7 9 9 9 C8.7834375 9.8971875 8.7834375 9.8971875 8.5625 10.8125 C8.1127561 12.56150404 7.57107659 14.28677023 7 16 C3.24095239 14.74698413 2.98919413 13.70792716 1.25 10.25 C0.80140625 9.38890625 0.3528125 8.5278125 -0.109375 7.640625 C-1.12574014 4.6271915 -0.88832755 3.01164706 0 0 Z " fill="#131516" transform="translate(32,196)"/>
<path d="M0 0 C5.307213 1.0614426 10.22393318 3.51644525 15 6 C15 6.99 15 7.98 15 9 C12.03 8.505 12.03 8.505 9 8 C9 8.66 9 9.32 9 10 C8.34 10 7.68 10 7 10 C7.33 11.98 7.66 13.96 8 16 C7.01 16.33 6.02 16.66 5 17 C3.96198445 15.11351956 2.94516833 13.21536344 1.9375 11.3125 C1.36902344 10.25675781 0.80054688 9.20101562 0.21484375 8.11328125 C-1.08735791 4.77612779 -1.08754852 3.34964944 0 0 Z " fill="#131416" transform="translate(59,36)"/>
<path d="M0 0 C3.54243452 1.36591169 6.92627929 2.90931484 10.3125 4.625 C11.63701172 5.29402344 11.63701172 5.29402344 12.98828125 5.9765625 C13.98408203 6.48316406 13.98408203 6.48316406 15 7 C12.44722581 9.79233071 10.77639718 10.48967606 7 11 C7 12.65 7 14.3 7 16 C6.01 16.33 5.02 16.66 4 17 C2.93919915 14.9263441 1.90190476 12.84064914 0.875 10.75 C0.29492188 9.58984375 -0.28515625 8.4296875 -0.8828125 7.234375 C-2 4 -2 4 -1.1796875 1.578125 C-0.59574219 0.79695312 -0.59574219 0.79695312 0 0 Z " fill="#131516" transform="translate(194,170)"/>
<path d="M0 0 C3.55930982 -0.32357362 5.41791735 -0.3880551 8.4375 1.625 C10 4 10 4 9.875 7.125 C9 10 9 10 7 12 C3.92430852 12.32720122 1.86178153 12.53489888 -0.8125 10.875 C-2.42228269 8.33323785 -2.67109009 5.9601892 -3 3 C-2.34 3 -1.68 3 -1 3 C-0.67 2.01 -0.34 1.02 0 0 Z " fill="#131516" transform="translate(80,20)"/>
<path d="M0 0 C2.3125 1.125 2.3125 1.125 4 3 C4.46376624 6.18011138 4.54663625 8.08893958 2.875 10.875 C0.08893958 12.54663625 -1.81988862 12.46376624 -5 12 C-7.35210784 9.88310295 -7.91810953 8.55958485 -8.375 5.4375 C-8 3 -8 3 -6.8125 1.1875 C-4.33490123 -0.43575437 -2.91404169 -0.42644513 0 0 Z " fill="#141517" transform="translate(220,154)"/>
<path d="M0 0 C3.125 0.4375 3.125 0.4375 5.5625 2.625 C7.125 5.4375 7.125 5.4375 7.125 8.125 C6.125 10.4375 6.125 10.4375 4.375 11.8125 C1.56844513 12.59209857 -0.11272441 12.30979755 -2.875 11.4375 C-4.875 9.4375 -4.875 9.4375 -5.125 5.9375 C-4.81411717 1.58514044 -4.33705875 0.6599872 0 0 Z " fill="#141517" transform="translate(98.875,136.5625)"/>
<path d="M0 0 C0.99 0.33 1.98 0.66 3 1 C2 3 1 5 0 7 C4.455 6.505 4.455 6.505 9 6 C11.16981132 10.33962264 11.16981132 10.33962264 10.4375 13.1875 C8.58670175 15.52111519 6.80199689 16.11515888 4 17 C3.67 16.01 3.34 15.02 3 14 C4.32 12.68 5.64 11.36 7 10 C6.37351563 10.09539063 5.74703125 10.19078125 5.1015625 10.2890625 C4.28429687 10.39992188 3.46703125 10.51078125 2.625 10.625 C1.81289062 10.74101562 1.00078125 10.85703125 0.1640625 10.9765625 C-0.55007812 10.98429687 -1.26421875 10.99203125 -2 11 C-4 9 -4 9 -4.375 6.625 C-3.89262388 3.24836718 -2.55541504 2.15613144 0 0 Z " fill="#131516" transform="translate(208,20)"/>
<path d="M0 0 C0.66 0 1.32 0 2 0 C2.33 1.98 2.66 3.96 3 6 C5.31 6.33 7.62 6.66 10 7 C10 7.66 10 8.32 10 9 C7.69 9.66 5.38 10.32 3 11 C3 12.32 3 13.64 3 15 C-0.37198902 13.53424802 -2.64987004 11.64818479 -5.25 9.0625 C-5.95640625 8.37285156 -6.6628125 7.68320313 -7.390625 6.97265625 C-9 5 -9 5 -9 2 C-6.625 2.3125 -6.625 2.3125 -4 3 C-3.01 4.485 -3.01 4.485 -2 6 C-1.34 4.02 -0.68 2.04 0 0 Z " fill="#141517" transform="translate(14,86)"/>
<path d="M0 0 C0.66 0 1.32 0 2 0 C2 1.98 2 3.96 2 6 C4.31 6 6.62 6 9 6 C9 6.99 9 7.98 9 9 C4.25 10.125 4.25 10.125 2 9 C2 9.66 2 10.32 2 11 C2.99 11.33 3.98 11.66 5 12 C4.67 12.66 4.34 13.32 4 14 C-0.10447392 13.48223379 -1.95699523 11.35372556 -4.75 8.4375 C-5.54921875 7.61121094 -6.3484375 6.78492188 -7.171875 5.93359375 C-7.77515625 5.29550781 -8.3784375 4.65742188 -9 4 C-8.67 3.01 -8.34 2.02 -8 1 C-5.53199953 2.15173355 -3.95216435 3.04783565 -2 5 C-1.34 3.35 -0.68 1.7 0 0 Z " fill="#131517" transform="translate(248,254)"/>
<path d="M0 0 C0.99 0.33 1.98 0.66 3 1 C3 3 3 3 1 5.125 C0.34 5.74375 -0.32 6.3625 -1 7 C-0.01 6.67 0.98 6.34 2 6 C5.625 5.875 5.625 5.875 9 6 C10 7 10 7 10.3125 9.8125 C10 13 10 13 8 15.375 C7.34 15.91125 6.68 16.4475 6 17 C5.01 16.67 4.02 16.34 3 16 C3.9977758 13.00667261 4.7522025 12.05233685 7 10 C6.37351562 10.09539062 5.74703125 10.19078125 5.1015625 10.2890625 C4.28429687 10.39992188 3.46703125 10.51078125 2.625 10.625 C1.81289062 10.74101562 1.00078125 10.85703125 0.1640625 10.9765625 C-0.55007812 10.98429687 -1.26421875 10.99203125 -2 11 C-2.66 10.34 -3.32 9.68 -4 9 C-3.8125 5.5 -3.8125 5.5 -3 2 C-2.01 1.34 -1.02 0.68 0 0 Z " fill="#131517" transform="translate(116,248)"/>
<path d="M0 0 C0 0.99 0 1.98 0 3 C-0.99 3.495 -0.99 3.495 -2 4 C-1.67 4.66 -1.34 5.32 -1 6 C0.11375 5.79375 1.2275 5.5875 2.375 5.375 C4.169375 5.189375 4.169375 5.189375 6 5 C6.66 5.66 7.32 6.32 8 7 C7.8125 10.5 7.8125 10.5 7 14 C4 16 4 16 1.8125 15.625 C1.214375 15.41875 0.61625 15.2125 0 15 C0 14.34 0 13.68 0 13 C0.639375 12.71125 1.27875 12.4225 1.9375 12.125 C4.15206079 11.17176549 4.15206079 11.17176549 5 9 C4.28972656 9.08378906 3.57945312 9.16757813 2.84765625 9.25390625 C1.92855469 9.35574219 1.00945312 9.45757812 0.0625 9.5625 C-1.31228516 9.71912109 -1.31228516 9.71912109 -2.71484375 9.87890625 C-3.46894531 9.91886719 -4.22304687 9.95882812 -5 10 C-6 9 -6 9 -6.25 6.125 C-6 3 -6 3 -4.6875 1.125 C-3 0 -3 0 0 0 Z " fill="#141517" transform="translate(245,122)"/>
<path d="M0 0 C5.6626826 2.8313413 9.15619099 5.98756041 13 11 C11.625 12.5078125 11.625 12.5078125 10 14 C7.41857664 13.83866104 6.24518293 13.20140026 4.25 11.5625 C3 10 3 10 3 8 C1.68 7.34 0.36 6.68 -1 6 C-1 2 -1 2 0 0 Z " fill="#18191B" transform="translate(184,43)"/>
<path d="M0 0 C8.25 0 16.5 0 25 0 C25 5 25 5 23.875 6.8125 C21.22464043 8.49106106 19.06753576 8.20450238 16 8 C16 7.34 16 6.68 16 6 C15.34 6 14.68 6 14 6 C13.67 4.35 13.34 2.7 13 1 C8.71 1 4.42 1 0 1 C0 0.67 0 0.34 0 0 Z " fill="#313233" transform="translate(115,242)"/>
<path d="M0 0 C0.94875 0.04125 1.8975 0.0825 2.875 0.125 C3.5625 1.9375 3.5625 1.9375 3.875 4.125 C2.4375 5.875 2.4375 5.875 0.875 7.125 C2.855 6.465 4.835 5.805 6.875 5.125 C6.47500283 7.44498359 5.96932121 8.98823424 4.625 10.9375 C2.875 12.125 2.875 12.125 0.375 12 C-2.35602271 11.04414205 -3.54056098 10.54335429 -5.125 8.125 C-5.4375 5.0625 -5.4375 5.0625 -5.125 2.125 C-3.125 0.125 -3.125 0.125 0 0 Z " fill="#131516" transform="translate(235.125,136.875)"/>
<path d="M0 0 C0.99 0.33 1.98 0.66 3 1 C3 1.66 3 2.32 3 3 C2.01 3.495 2.01 3.495 1 4 C0.67 4.99 0.34 5.98 0 7 C0.556875 6.649375 1.11375 6.29875 1.6875 5.9375 C4.6020668 4.75591887 6.04965818 4.99067254 9 6 C11 9 11 9 11 13 C9.02 13 7.04 13 5 13 C5.66 12.67 6.32 12.34 7 12 C7 11.01 7 10.02 7 9 C6.2575 9.350625 5.515 9.70125 4.75 10.0625 C1.83790206 11.05526066 0.78930967 11.1541971 -2 10 C-2.66 9.34 -3.32 8.68 -4 8 C-3.77256695 5.04337034 -3.38764062 3.44966312 -1.4375 1.1875 C-0.963125 0.795625 -0.48875 0.40375 0 0 Z " fill="#141618" transform="translate(81,147)"/>
<path d="M0 0 C0.33 0 0.66 0 1 0 C1 2.31 1 4.62 1 7 C3.97 7 6.94 7 10 7 C6.61831569 10.68006822 3.57478244 12.9785845 -1 15 C-6 9.5 -6 9.5 -6 5 C-3.525 5.99 -3.525 5.99 -1 7 C-1.020625 6.030625 -1.04125 5.06125 -1.0625 4.0625 C-1 1 -1 1 0 0 Z " fill="#17191A" transform="translate(149,220)"/>
<path d="M0 0 C24.77626887 -0.82555811 24.77626887 -0.82555811 36 4 C35.67 4.99 35.34 5.98 35 7 C32.71562701 6.55786329 30.44205517 6.11648106 28.19140625 5.5234375 C20.88287127 3.67212618 13.50186153 3.37558727 6 3 C6 2.67 6 2.34 6 2 C3.03 1.505 3.03 1.505 0 1 C0 0.67 0 0.34 0 0 Z " fill="#C9C9C9" transform="translate(115,32)"/>
<path d="M0 0 C2.31 0.66 4.62 1.32 7 2 C7.061875 2.61875 7.12375 3.2375 7.1875 3.875 C7.828919 6.27761141 7.828919 6.27761141 10.5625 7.25 C11.366875 7.4975 12.17125 7.745 13 8 C12.67 9.32 12.34 10.64 12 12 C8.1286412 11.46231128 6.02815875 10.422527 3 8 C2.01 7.67 1.02 7.34 0 7 C0 4.69 0 2.38 0 0 Z " fill="#131516" transform="translate(247,117)"/>
<path d="M0 0 C0.33 0 0.66 0 1 0 C2.03590199 5.05002222 2.10251672 9.87416389 2 15 C-6.69830028 7.66997167 -6.69830028 7.66997167 -9 5 C-9 4.01 -9 3.02 -9 2 C-5.64404172 2.59927826 -3.62198774 3.84622436 -1 6 C-1.020625 5.195625 -1.04125 4.39125 -1.0625 3.5625 C-1 1 -1 1 0 0 Z " fill="#131517" transform="translate(275,94)"/>
<path d="M0 0 C0.969375 0.185625 1.93875 0.37125 2.9375 0.5625 C3.948125 0.706875 4.95875 0.85125 6 1 C6.33 0.67 6.66 0.34 7 0 C8.99958364 -0.04080783 11.00045254 -0.04254356 13 0 C11.35 3.3 9.7 6.6 8 10 C0.63392857 4.10714286 0.63392857 4.10714286 0 0 Z " fill="#17181A" transform="translate(55,171)"/>
<path d="M0 0 C2.875 0.6875 2.875 0.6875 6 2 C6.72159424 3.64363134 7.39351421 5.31050386 8 7 C10.04105639 7.88693303 10.04105639 7.88693303 12 8 C11.67 9.32 11.34 10.64 11 12 C6.47176819 11.46726685 3.48706217 9.93230228 0 7 C-0.9375 3.8125 -0.9375 3.8125 -1 1 C-0.67 0.67 -0.34 0.34 0 0 Z " fill="#141517" transform="translate(86,142)"/>
<path d="M0 0 C2.9375 0.75 2.9375 0.75 6 2 C6.3721042 3.32303717 6.70630173 4.65737935 7 6 C9.49034386 7.29660434 9.49034386 7.29660434 12 8 C11.67 9.32 11.34 10.64 11 12 C7.15045547 11.46534104 4.98245889 10.46824184 2 8 C1.34 7.67 0.68 7.34 0 7 C-0.6875 4 -0.6875 4 -1 1 C-0.67 0.67 -0.34 0.34 0 0 Z " fill="#141517" transform="translate(213,16)"/>
<path d="M0 0 C0.66 0 1.32 0 2 0 C2 0.66 2 1.32 2 2 C3.32 1.67 4.64 1.34 6 1 C6.33 2.65 6.66 4.3 7 6 C8.65 6.33 10.3 6.66 12 7 C11.6875 8.9375 11.6875 8.9375 11 11 C10.01 11.33 9.02 11.66 8 12 C5.8125 10.6875 5.8125 10.6875 4 9 C4 8.34 4 7.68 4 7 C2.68 7 1.36 7 0 7 C-0.38133299 5.0085944 -0.71325582 3.00720923 -1 1 C-0.67 0.67 -0.34 0.34 0 0 Z " fill="#141517" transform="translate(121,244)"/>
<path d="M0 0 C0.99 0.33 1.98 0.66 3 1 C2.34 2.98 1.68 4.96 1 7 C4.05263664 7.98120464 5.94736336 7.98120464 9 7 C8.34 8.65 7.68 10.3 7 12 C0.59495352 12.48339973 0.59495352 12.48339973 -2 10.375 C-3.34180884 7.18820399 -2.92947204 5.28890107 -2 2 C-1.34 1.34 -0.68 0.68 0 0 Z " fill="#131517" transform="translate(232,1)"/>
<path d="M0 0 C4.41306872 1.47649139 7.76956294 3.89078859 11.375 6.75 C11.94500732 7.19520996 12.51501465 7.64041992 13.10229492 8.09912109 C17.16584164 11.29046088 21.12781395 14.57806814 25 18 C24.34 18.66 23.68 19.32 23 20 C22.12601563 19.18208984 22.12601563 19.18208984 21.234375 18.34765625 C15.52611159 13.09713094 9.64784098 8.3813068 3.37109375 3.84765625 C1 2 1 2 0 0 Z " fill="#2F3030" transform="translate(116,147)"/>
<path d="M0 0 C0.82048828 -0.00128906 1.64097656 -0.00257812 2.48632812 -0.00390625 C3.34033203 -0.00003906 4.19433594 0.00382812 5.07421875 0.0078125 C5.91662109 0.00394531 6.75902344 0.00007813 7.62695312 -0.00390625 C12.1186877 0.00311757 16.34134689 0.22422057 20.76171875 1.1328125 C18.15303506 3.74149619 17.01639511 3.39010163 13.38671875 3.3984375 C12.319375 3.40101562 11.25203125 3.40359375 10.15234375 3.40625 C8.47398437 3.39464844 8.47398437 3.39464844 6.76171875 3.3828125 C5.6428125 3.39054687 4.52390625 3.39828125 3.37109375 3.40625 C2.30375 3.40367188 1.23640625 3.40109375 0.13671875 3.3984375 C-0.84554687 3.39618164 -1.8278125 3.39392578 -2.83984375 3.39160156 C-5.23828125 3.1328125 -5.23828125 3.1328125 -7.23828125 1.1328125 C-4.48580313 0.21531979 -2.8370487 0.00431209 0 0 Z " fill="#3D3E3F" transform="translate(121.23828125,34.8671875)"/>
<path d="M0 0 C4.95 0 9.9 0 15 0 C14.01 1.485 14.01 1.485 13 3 C11.35 2.67 9.7 2.34 8 2 C8.66 3.32 9.32 4.64 10 6 C8.68 6.33 7.36 6.66 6 7 C4.02 4.69 2.04 2.38 0 0 Z " fill="#141617" transform="translate(235,0)"/>
<path d="M0 0 C5.03341846 3.31272909 9.95843591 6.76673934 14.875 10.25 C15.65875 10.80429688 16.4425 11.35859375 17.25 11.9296875 C19.16717704 13.28573956 21.08382944 14.64252629 23 16 C22.34 16.66 21.68 17.32 21 18 C13.60583782 12.74516002 6.22295526 7.48944599 -1 2 C-0.67 1.34 -0.34 0.68 0 0 Z " fill="#333333" transform="translate(116,110)"/>
<path d="M0 0 C-5.30426085 3.5361739 -10.64764679 3.12967778 -16.8125 3.0625 C-17.99489258 3.05573242 -17.99489258 3.05573242 -19.20117188 3.04882812 C-21.13414761 3.03711312 -23.06708393 3.01917998 -25 3 C-25 2.34 -25 1.68 -25 1 C-23.46279297 0.90912109 -23.46279297 0.90912109 -21.89453125 0.81640625 C-20.53384305 0.73194974 -19.17316657 0.64730433 -17.8125 0.5625 C-17.13896484 0.52318359 -16.46542969 0.48386719 -15.77148438 0.44335938 C-1.73692255 -0.44663723 -1.73692255 -0.44663723 0 0 Z " fill="#464748" transform="translate(142,237)"/>
<path d="M0 0 C4.8270487 1.28721299 5.83922605 1.78563473 9 6 C5.04 6 1.08 6 -3 6 C-2 2 -2 2 0 0 Z " fill="#090A0C" transform="translate(240,262)"/>
<path d="M0 0 C2.6875 1.4375 2.6875 1.4375 5 3 C4.34 4.32 3.68 5.64 3 7 C0.03 6.01 -2.94 5.02 -6 4 C-3 1 -3 1 0 0 Z " fill="#232425" transform="translate(200,35)"/>
<path d="M0 0 C0.94875 0.350625 1.8975 0.70125 2.875 1.0625 C2.545 2.0525 2.215 3.0425 1.875 4.0625 C-1.095 4.0625 -4.065 4.0625 -7.125 4.0625 C-4.42934783 -1.32880435 -4.42934783 -1.32880435 0 0 Z " fill="#131416" transform="translate(110.125,263.9375)"/>
<path d="M0 0 C0.97453125 0.31324219 1.9490625 0.62648437 2.953125 0.94921875 C4.43039063 1.40748047 4.43039063 1.40748047 5.9375 1.875 C7.05898437 2.25205078 7.05898437 2.25205078 8.203125 2.63671875 C7.873125 3.62671875 7.543125 4.61671875 7.203125 5.63671875 C2.51573835 4.72948262 -2.13881244 3.68199205 -6.796875 2.63671875 C-4.3544251 0.2814992 -3.44630824 -0.44763501 0 0 Z " fill="#D8D8D8" transform="translate(142.796875,33.36328125)"/>
<path d="M0 0 C0 0.99 0 1.98 0 3 C-3.96 3 -7.92 3 -12 3 C-11 1 -11 1 -9.00390625 0.33203125 C-8.19824219 0.16058594 -7.39257812 -0.01085937 -6.5625 -0.1875 C-5.75941406 -0.36667969 -4.95632812 -0.54585937 -4.12890625 -0.73046875 C-2 -1 -2 -1 0 0 Z " fill="#F0F0F0" transform="translate(141,239)"/>
<path d="M0 0 C-2.85276137 2.93200474 -5.65079784 5.64315404 -9 8 C-9.25 5.6875 -9.25 5.6875 -9 3 C-6.19926731 -0.00819437 -4.01012625 -0.33417719 0 0 Z " fill="#1C1D1E" transform="translate(77,162)"/>
<path d="M0 0 C2.125 0.9375 2.125 0.9375 4 2 C3.67 3.32 3.34 4.64 3 6 C1.02 5.34 -0.96 4.68 -3 4 C-2.67 3.01 -2.34 2.02 -2 1 C-1.34 0.67 -0.68 0.34 0 0 Z " fill="#090B0C" transform="translate(182,56)"/>
<path d="M0 0 C1.32 0.99 2.64 1.98 4 3 C3.67 3.99 3.34 4.98 3 6 C1.68 5.67 0.36 5.34 -1 5 C-1.33 3.68 -1.66 2.36 -2 1 C-1.34 0.67 -0.68 0.34 0 0 Z " fill="#090A0C" transform="translate(217,157)"/>
<path d="M0 0 C0.99 0.33 1.98 0.66 3 1 C5.22574335 1.22451458 7.45581519 1.40782878 9.6875 1.5625 C10.86699219 1.64628906 12.04648438 1.73007812 13.26171875 1.81640625 C14.61716797 1.90728516 14.61716797 1.90728516 16 2 C16 2.33 16 2.66 16 3 C9.18491136 3.82810601 3.48129797 4.50413785 -3 2 C-2.01 1.34 -1.02 0.68 0 0 Z " fill="#4B4B4C" transform="translate(147,33)"/>
<path d="M0 0 C2.475 0.495 2.475 0.495 5 1 C5 2.32 5 3.64 5 5 C3.35 4.67 1.7 4.34 0 4 C0 2.68 0 1.36 0 0 Z " fill="#080A0C" transform="translate(54,183)"/>
<path d="M0 0 C1.32 0.66 2.64 1.32 4 2 C4 3.32 4 4.64 4 6 C2.68 5.67 1.36 5.34 0 5 C-0.5625 3.0625 -0.5625 3.0625 -1 1 C-0.67 0.67 -0.34 0.34 0 0 Z " fill="#090B0D" transform="translate(207,166)"/>
<path d="M0 0 C0.66 0 1.32 0 2 0 C3.625 2.5 3.625 2.5 5 5 C3.125 5.625 3.125 5.625 1 6 C0.34 5.34 -0.32 4.68 -1 4 C-0.625 1.875 -0.625 1.875 0 0 Z " fill="#090B0C" transform="translate(46,191)"/>
<path d="M0 0 C1.98 0.495 1.98 0.495 4 1 C4 2.32 4 3.64 4 5 C2.68 4.67 1.36 4.34 0 4 C0 2.68 0 1.36 0 0 Z " fill="#080A0B" transform="translate(259,115)"/>
<path d="M0 0 C1.32 0.33 2.64 0.66 4 1 C4.33 2.32 4.66 3.64 5 5 C3.35 4.67 1.7 4.34 0 4 C0 2.68 0 1.36 0 0 Z " fill="#080A0B" transform="translate(97,140)"/>
<path d="M0 0 C1.32 0.33 2.64 0.66 4 1 C4.33 2.32 4.66 3.64 5 5 C3.35 4.67 1.7 4.34 0 4 C0 2.68 0 1.36 0 0 Z " fill="#080A0C" transform="translate(81,23)"/>
<path d="M0 0 C1.32 0.66 2.64 1.32 4 2 C4 3.32 4 4.64 4 6 C2.68 5.34 1.36 4.68 0 4 C0 2.68 0 1.36 0 0 Z " fill="#090A0C" transform="translate(91,14)"/>
<path d="M0 0 C0.66 0 1.32 0 2 0 C1.49396008 2.16874252 1.00016187 3.99967627 0 6 C-0.99 6 -1.98 6 -3 6 C-2.42655063 3.13275314 -2.1385485 2.1385485 0 0 Z " fill="#141617" transform="translate(240,262)"/>
<path d="M0 0 C2.475 0.495 2.475 0.495 5 1 C5 2.32 5 3.64 5 5 C2.525 4.01 2.525 4.01 0 3 C0 2.01 0 1.02 0 0 Z " fill="#080A0B" transform="translate(224,149)"/>
<path d="M0 0 C-1.485 1.98 -1.485 1.98 -3 4 C-4.32 3.67 -5.64 3.34 -7 3 C-7 2.34 -7 1.68 -7 1 C-4.53721199 -0.231394 -2.7204945 -0.07159196 0 0 Z " fill="#121415" transform="translate(118,0)"/>
<path d="M0 0 C1.98 0 3.96 0 6 0 C5.67 1.32 5.34 2.64 5 4 C3.0625 3.6875 3.0625 3.6875 1 3 C0.67 2.01 0.34 1.02 0 0 Z " fill="#090A0C" transform="translate(131,243)"/>
<path d="M0 0 C1.32 0.66 2.64 1.32 4 2 C4 2.99 4 3.98 4 5 C2.68 4.67 1.36 4.34 0 4 C0 2.68 0 1.36 0 0 Z " fill="#080A0C" transform="translate(73,32)"/>
</svg>
